<?xml version="1.0" encoding="utf-8"?>
<!-- Generator: Adobe Illustrator 15.0.0, SVG Export Plug-In . SVG Version: 6.00 Build 0)  -->
<!DOCTYPE svg PUBLIC "-//W3C//DTD SVG 1.1//EN" "http://www.w3.org/Graphics/SVG/1.1/DTD/svg11.dtd">
<svg version="1.1" id="圖層_1" xmlns="http://www.w3.org/2000/svg" xmlns:xlink="http://www.w3.org/1999/xlink" x="0px" y="0px"
	 width="276px" height="229px" viewBox="0 0 276 229" enable-background="new 0 0 276 229" xml:space="preserve">
<path fill="none" stroke="#3F3F3F" stroke-width="2" stroke-miterlimit="10" d="M54.159,79.576l13.199-55.285
	c0.941-4.685,2.201-9.37,3.775-14.057c1.574-5.061,5.057-6.566,14.246-5.646c9.189,0.918,6.041,11.228-1.186,42.337
	c-2.516,10.683-12.922,34.492-19.561,42.372c-6.322,7.318-21.207,10.344-33.572,6.06c-4.756-1.677-8.244-3.917-10.785-6.723
	c-3.811-4.302-6.67-8.979-7.629-13.66L5.618,44.828c-1.6-7.303-3.197-14.979-4.164-22.47C0.812,17.301,0.802,12.056,1.743,6.809
	c0.625-3.747,3.475-4.877,10.129-4.702c10.139,0.354,15.211,2.031,16.801,5.587c1.91,4.305,4.137,8.609,5.729,13.102
	c5.734,16.473,8.936,32.764,11.186,49.431c0.643,4.869,1.293,13.485,4.146,14.604C53.218,84.449,53.528,81.451,54.159,79.576z"/>
<path fill="none" stroke="#3F3F3F" stroke-width="2" stroke-miterlimit="10" d="M109.946,87.583
	c-4.754-0.927-5.406-4.731-4.779-7.543c0.629-2.812,4.111-4.13,8.547-4.138c1.268-0.003,2.219-0.004,3.168,0.182
	c6.339,1.299,8.562,3.729,6.982,6.729c-1.262,2.438-4.096,5.501-9.164,5.511C113.749,88.137,111.849,87.954,109.946,87.583z"/>
<path fill="none" stroke="#FFA6A8" stroke-width="2" stroke-miterlimit="10" d="M223.861,16.238
	c-2.195,11.805-11.983,21.032-20.555,26.962c-9.053,6.265-18.354,10.46-30.065,16.103c-1.899,0.94-2.533,1.129-3.798,2.068
	c16.807,8.209,25.381,17.934,31.104,28.6c1.59,2.807,0.008,3.746-5.38,3.757c-4.752,0.009-8.239-0.921-10.146-3.727
	c-1.906-3.181-3.813-6.362-6.037-9.354c-4.449-6.548-7.939-9.726-12.062-10.654l-0.942,4.311c-0.312,1.499-0.312,2.811-0.625,4.122
	c-3.457,14.431-0.914,19.296-11.365,20.253l-2.219,0.191c-12.037,0.211-14.575-0.908-14.907-8.025
	c-0.655-11.987,0.271-24.353,0.247-36.716c-0.006-2.81,0.305-5.808,0.616-8.993c1.245-11.055,2.174-22.107,3.42-33.35
	c0.312-2.811,1.256-5.248,2.52-8.06c0.945-2.25,2.846-3.003,6.965-2.637c3.803,0.368,7.924,1.296,11.727,2.226
	c4.121,0.929,5.078,4.299,5.722,8.793c0.644,4.495,1.64,28.47,1.325,30.344c12.029-5.081,18.779-9.902,22.25-17.589
	c2.207-5.062,4.098-10.311,6.623-15.373c2.209-4.688,3.791-5.253,11.715-3.956l2.219,0.369
	C220.77,7.384,224.803,11.177,223.861,16.238z"/>
<path fill="none" stroke="#FFA6A8" stroke-width="2" stroke-miterlimit="10" d="M220.521,87.744
	c-4.754-0.928-6.684-5.104-6.055-7.916c0.629-2.811,4.11-4.129,8.547-4.138c1.268-0.003,2.217-0.004,3.168,0.182
	c6.34,1.299,8.562,3.729,6.982,6.729c-1.264,2.438-2.818,5.873-7.889,5.883C224.326,88.298,222.424,88.115,220.521,87.744z"/>
<polygon fill="none" stroke="#3F3F3F" stroke-miterlimit="10" points="33.778,173.059 35.687,178.891 41.821,178.879 
	36.862,182.495 38.772,188.327 33.8,184.73 28.843,188.346 30.726,182.506 25.757,178.911 31.894,178.896 "/>
<polygon fill="#F7EAE4" stroke="#3F3F3F" stroke-miterlimit="10" points="96.142,175.098 97.683,179.805 102.636,179.795 
	98.634,182.715 100.175,187.424 96.161,184.52 92.159,187.438 93.681,182.725 89.667,179.82 94.622,179.811 "/>
<polygon fill="none" stroke="#3F3F3F" stroke-miterlimit="10" points="128.147,170.777 129.938,176.252 135.697,176.241 
	131.044,179.635 132.834,185.107 128.169,181.732 123.515,185.127 125.284,179.646 120.619,176.27 126.378,176.258 "/>
<polygon fill="none" stroke="#3F3F3F" stroke-miterlimit="10" points="202.908,169.697 204.604,174.887 210.064,174.875 
	205.654,178.094 207.354,183.284 202.93,180.083 198.518,183.301 200.193,178.105 195.77,174.904 201.229,174.893 "/>
<polygon fill="#F7EAE4" stroke="#3F3F3F" stroke-miterlimit="10" points="63.165,171.562 64.407,175.359 68.401,175.352 
	65.175,177.706 66.415,181.5 63.181,179.161 59.954,181.514 61.181,177.713 57.944,175.372 61.938,175.363 "/>
<polygon fill="#F7EAE4" stroke="#3F3F3F" stroke-miterlimit="10" points="169.26,167.344 170.38,170.768 173.98,170.76 
	171.07,172.883 172.189,176.307 169.273,174.195 166.363,176.316 167.471,172.891 164.553,170.777 168.152,170.771 "/>
<polygon fill="#FFC0C2" stroke="#3F3F3F" stroke-miterlimit="10" points="202.641,146.152 202.869,149.579 206.2,150.42 
	203.012,151.697 203.24,155.124 201.041,152.486 197.852,153.764 199.684,150.855 197.48,148.219 200.812,149.059 "/>
<polygon fill="#FFC0C2" stroke="#3F3F3F" stroke-miterlimit="10" points="49.632,53.814 52.657,58.203 57.769,56.678 54.528,60.915 
	57.558,65.302 52.528,63.533 49.292,67.769 49.421,62.437 44.392,60.668 49.501,59.144 "/>
<path fill="none" stroke="#3F3F3F" stroke-width="2" stroke-miterlimit="10" d="M21.517,152.266
	c0.641,2.162,1.281,4.451,2.176,6.613c0.639,1.652,1.025,4.068,3.189,4.572c2.164,0.377,2.539-2.676,2.535-4.457
	c-0.012-5.852-4.611-17.039-7.678-23.266c-1.531-3.051-2.811-6.229-4.215-9.406c-1.791-4.322-2.053-8.773-1.555-13.355
	c0.752-6.743,6.848-11.59,13.594-10.585c3.053,0.375,5.854,1.26,8.529,2.781c4.457,2.537,6.754,6.476,6.764,11.692
	c0.004,1.526-0.121,3.18-0.373,4.707c-0.252,1.526-0.887,1.91-2.541,1.658c-3.182-0.63-4.328-1.771-4.205-3.808
	c0.5-5.09-0.145-8.396-2.439-11.445c-1.148-1.779-2.42-1.776-3.689-0.121c-1.904,2.168-2.021,6.365-1.891,8.783
	c0.527,9.666,2.316,14.625,6.658,21.994c1.148,1.905,2.297,3.812,3.318,5.847c4.854,10.168-0.08,24.936-11.15,23.43
	c-5.598-0.625-10.184-4.051-12.23-9.392c-0.895-2.159-1.408-4.575-1.795-6.864c-0.256-1.146-0.129-1.908,0.25-2.418
	C16.038,147.57,20.622,149.598,21.517,152.266z"/>
<path fill="none" stroke="#3F3F3F" stroke-width="2" stroke-miterlimit="10" d="M50.05,106.541c-1.02-0.635-1.529-2.033,0.123-2.418
	c2.543-0.641,5.213-1.154,7.758-1.414c4.578-0.518,9.158-0.781,13.736-1.044c1.527-0.13,4.453-0.39,4.963,0.499
	c0.639,1.016,0.387,2.67-0.885,3.055c-2.162,0.641-4.324,0.391-6.484,0.904c-0.252,2.417-0.113,8.015-0.104,12.977l-0.449,31.297
	c0.025,12.977,1.691,18.697-4.545,18.074c-2.035,0.004-3.691-0.886-4.582-1.519c-2.676-1.904-1.922-6.483-1.801-9.793
	c0.09-20.736,0.191-32.949,1.689-47.836l0.121-2.292C54.888,107.803,52.599,108.317,50.05,106.541z"/>
<path fill="none" stroke="#3F3F3F" stroke-width="2" stroke-miterlimit="10" d="M98.749,159.877
	c1.016-1.656,1.902-3.564,2.535-5.221c2.152-5.729,3.285-11.455,4.293-17.309c1.51-8.527,2.51-17.054,2.494-25.45
	c-0.006-2.672,0.244-5.217,0.494-7.762c0.123-1.526,0.631-2.036,2.285-2.167c3.561-0.262,4.326,0.883,4.332,3.045
	c0.027,14.503-0.963,28.626-4.498,42.755c-0.885,3.562-2.908,8.783-4.303,11.457c-3.549,6.877-9.523,8.924-17.924,6.903
	c-4.582-1.137-6.371-5.202-6.508-9.146c-0.137-5.726-0.658-11.703-0.541-17.555c0.234-10.435,1.74-20.613,4.01-30.668
	c0.381-1.654,1.012-3.056,1.646-4.456c1.393-3.056,5.209-3.572,7.631-1.669c0.764,0.635,0.637,0.89,0.641,3.307
	c-0.111,7.379,0.029,14.758-0.084,22.264c-0.115,5.471-0.486,10.941-0.73,16.412c-0.609,13.486-1.623,16.16,0.418,18.445
	C96.341,163.954,97.862,161.279,98.749,159.877z"/>
<path fill="none" stroke="#3F3F3F" stroke-width="2" stroke-miterlimit="10" d="M124.846,103.851
	c2.665-3.566,9.919-2.182,13.484-0.662c7.002,3.04,14.396,11.169,16.064,19.308c1.67,8.14,2.578,15.896-2.233,27.989
	c-2.912,7.132-10.284,10.707-16.896,12.119c-3.941,0.898-10.301,2.312-12.473-2.139c-0.894-1.779-1.024-3.814-1.155-5.723
	c-0.137-4.707-0.272-9.414-0.282-14.121C121.458,128.54,123.069,106.272,124.846,103.851z M133.771,114.012
	c-0.12,3.435-0.241,6.742-0.234,10.177c-0.111,8.396-1.113,16.541-1.479,24.812c-0.121,3.181-0.624,6.36-0.873,9.416
	c-0.25,1.908,0.387,2.543,1.913,2.158c14.113-3.718,17.767-22.554,14.177-36.793c-1.153-4.324-2.305-7.373-4.348-11.188
	c-1.275-2.16-3.824-4.445-6.499-5.966c-0.383-0.254-1.274-0.762-1.783-0.633C133.884,106.505,134.013,107.65,133.771,114.012z"/>
<path fill="none" stroke="#3F3F3F" stroke-width="2" stroke-miterlimit="10" d="M172.796,164.952
	c-2.924,0.514-4.194,0.897-6.868,0.396c-2.035-0.379-2.676-2.031-2.933-3.939c-0.899-4.959,1.565-45.164,1.937-51.271
	c0.121-2.546-2.293-0.758-2.555-4.575c-0.131-1.781,1.904-2.04,3.305-2.424c2.924-0.77,8.142-0.144,10.815,1.506
	c1.401,0.887,1.021,1.271,1.021,1.906c-0.119,3.944-4.709-0.627-4.699,4.081c-0.103,13.104-0.076,26.334-0.051,39.564
	c0.004,2.289-0.244,5.09,0.015,7.506c0.521,4.705,2.552,3.43,2.809,4.955C175.85,164.436,175.086,164.564,172.796,164.952z"/>
<path fill="none" stroke="#3F3F3F" stroke-width="2" stroke-miterlimit="10" d="M215.005,151.002l-1.265,3.945
	c-2.153,4.584-5.203,7.008-10.035,7.525c-1.145,0.131-2.29,0.006-3.436,0.008c-6.488-0.115-11.074-3.16-13.121-9.517
	c-3.201-10.299-3.484-25.185-1.474-37.146c0.505-2.926,1.263-5.728,2.272-8.527c0.888-2.546,2.793-3.949,5.719-3.955
	c1.398-0.003,2.925-0.515,4.322-0.899c7.631-2.05,14.89,1.498,17.701,8.999c1.664,4.576,2.182,9.41,2.317,14.244l0.007,3.689
	C218.157,136.749,217.025,143.874,215.005,151.002z M202.673,155.732c2.034-1.147,4.188-4.842,5.076-6.879
	c2.532-5.729,3.282-12.729,3.271-18.963c-0.008-4.707-0.652-9.285-1.935-13.733c-0.896-2.797-2.942-9.155-6.126-10.04
	c-1.527-0.506-3.814,1.025-4.447,2.3c-0.761,1.529-0.885,3.309-0.882,4.963c-0.231,11.451-0.591,22.899-0.823,34.351
	c0.004,1.654-0.121,3.436,0.519,4.961c0.64,1.908,2.044,3.938,5.095,3.172C202.547,155.732,202.547,155.732,202.673,155.732z"/>
<path fill="none" stroke="#3F3F3F" stroke-width="2" stroke-miterlimit="10" d="M54.159,79.576l13.199-55.285
	c0.941-4.685,2.201-9.37,3.775-14.057c1.574-5.061,5.057-6.566,14.246-5.646c9.189,0.918,6.041,11.228-1.186,42.337
	c-2.516,10.683-12.922,34.492-19.561,42.372c-6.322,7.318-21.207,10.344-33.572,6.06c-4.756-1.677-8.244-3.917-10.785-6.723
	c-3.811-4.302-6.67-8.979-7.629-13.66L5.618,44.828c-1.6-7.303-3.197-14.979-4.164-22.47C0.812,17.301,0.802,12.056,1.743,6.809
	c0.625-3.747,3.475-4.877,10.129-4.702c10.139,0.354,15.211,2.031,16.801,5.587c1.91,4.305,4.137,8.609,5.729,13.102
	c5.734,16.473,8.936,32.764,11.186,49.431c0.643,4.869,1.293,13.485,4.146,14.604C53.218,84.449,53.528,81.451,54.159,79.576z"/>
<path fill="none" stroke="#3F3F3F" stroke-width="2" stroke-miterlimit="10" d="M109.946,87.583
	c-4.754-0.927-5.406-4.731-4.779-7.543c0.629-2.812,4.111-4.13,8.547-4.138c1.268-0.003,2.219-0.004,3.168,0.182
	c6.339,1.299,8.562,3.729,6.982,6.729c-1.262,2.438-4.096,5.501-9.164,5.511C113.749,88.137,111.849,87.954,109.946,87.583z"/>
<path fill="none" stroke="#3F3F3F" stroke-width="2" stroke-miterlimit="10" d="M223.861,16.238
	c-2.195,11.805-11.983,21.032-20.555,26.962c-9.053,6.265-18.354,10.46-30.065,16.103c-1.899,0.94-2.533,1.129-3.798,2.068
	c16.807,8.209,25.381,17.934,31.104,28.6c1.59,2.807,0.008,3.746-5.38,3.757c-4.752,0.009-8.239-0.921-10.146-3.727
	c-1.906-3.181-3.813-6.362-6.037-9.354c-4.449-6.548-7.939-9.726-12.062-10.654l-0.942,4.311c-0.312,1.499-0.312,2.811-0.625,4.122
	c-3.457,14.431-0.914,19.296-11.365,20.253l-2.219,0.191c-12.037,0.211-14.575-0.908-14.907-8.025
	c-0.655-11.987,0.271-24.353,0.247-36.716c-0.006-2.81,0.305-5.808,0.616-8.993c1.245-11.055,2.174-22.107,3.42-33.35
	c0.312-2.811,1.256-5.248,2.52-8.06c0.945-2.25,2.846-3.003,6.965-2.637c3.803,0.368,7.924,1.296,11.727,2.226
	c4.121,0.929,5.078,4.299,5.722,8.793c0.644,4.495,1.64,28.47,1.325,30.344c12.029-5.081,18.779-9.902,22.25-17.589
	c2.207-5.062,4.098-10.311,6.623-15.373c2.209-4.688,3.791-5.253,11.715-3.956l2.219,0.369
	C220.77,7.384,224.803,11.177,223.861,16.238z"/>
<path fill="none" stroke="#3F3F3F" stroke-width="2" stroke-miterlimit="10" d="M220.521,87.744
	c-4.754-0.928-6.684-5.104-6.055-7.916c0.629-2.811,4.11-4.129,8.547-4.138c1.268-0.003,2.217-0.004,3.168,0.182
	c6.34,1.299,8.562,3.729,6.982,6.729c-1.264,2.438-2.818,5.873-7.889,5.883C224.326,88.298,222.424,88.115,220.521,87.744z"/>
<polygon fill="none" stroke="#3F3F3F" stroke-miterlimit="10" points="33.778,173.059 35.687,178.891 41.821,178.879 
	36.862,182.495 38.772,188.327 33.8,184.73 28.843,188.346 30.726,182.506 25.757,178.911 31.894,178.896 "/>
<polygon fill="#FFFFFF" stroke="#3F3F3F" stroke-miterlimit="10" points="96.142,175.098 97.683,179.805 102.636,179.795 
	98.634,182.715 100.175,187.424 96.161,184.52 92.159,187.438 93.681,182.725 89.667,179.82 94.622,179.811 "/>
<polygon fill="none" stroke="#3F3F3F" stroke-miterlimit="10" points="128.147,170.777 129.938,176.252 135.697,176.241 
	131.044,179.635 132.834,185.107 128.169,181.732 123.515,185.127 125.284,179.646 120.619,176.27 126.378,176.258 "/>
<polygon fill="none" stroke="#3F3F3F" stroke-miterlimit="10" points="202.908,169.697 204.604,174.887 210.064,174.875 
	205.654,178.094 207.354,183.284 202.93,180.083 198.518,183.301 200.193,178.105 195.77,174.904 201.229,174.893 "/>
<polygon fill="#FFFFFF" stroke="#3F3F3F" stroke-miterlimit="10" points="63.165,171.562 64.407,175.359 68.401,175.352 
	65.175,177.706 66.415,181.5 63.181,179.161 59.954,181.514 61.181,177.713 57.944,175.372 61.938,175.363 "/>
<polygon fill="#F7EAE4" stroke="#3F3F3F" stroke-miterlimit="10" points="169.26,167.344 170.38,170.768 173.98,170.76 
	171.07,172.883 172.189,176.307 169.273,174.195 166.363,176.316 167.471,172.891 164.553,170.777 168.152,170.771 "/>
<polygon fill="#FFFFFF" stroke="#3F3F3F" stroke-miterlimit="10" points="202.641,146.152 202.869,149.579 206.2,150.42 
	203.012,151.697 203.24,155.124 201.041,152.486 197.852,153.764 199.684,150.855 197.48,148.219 200.812,149.059 "/>
<polygon fill="#FFFFFF" stroke="#3F3F3F" stroke-miterlimit="10" points="49.632,53.814 52.657,58.203 57.769,56.678 54.528,60.915 
	57.558,65.302 52.528,63.533 49.292,67.769 49.421,62.437 44.392,60.668 49.501,59.144 "/>
<path fill="none" stroke="#3F3F3F" stroke-width="2" stroke-miterlimit="10" d="M21.517,152.266
	c0.641,2.162,1.281,4.451,2.176,6.613c0.639,1.652,1.025,4.068,3.189,4.572c2.164,0.377,2.539-2.676,2.535-4.457
	c-0.012-5.852-4.611-17.039-7.678-23.266c-1.531-3.051-2.811-6.229-4.215-9.406c-1.791-4.322-2.053-8.773-1.555-13.355
	c0.752-6.743,6.848-11.59,13.594-10.585c3.053,0.375,5.854,1.26,8.529,2.781c4.457,2.537,6.754,6.476,6.764,11.692
	c0.004,1.526-0.121,3.18-0.373,4.707c-0.252,1.526-0.887,1.91-2.541,1.658c-3.182-0.63-4.328-1.771-4.205-3.808
	c0.5-5.09-0.145-8.396-2.439-11.445c-1.148-1.779-2.42-1.776-3.689-0.121c-1.904,2.168-2.021,6.365-1.891,8.783
	c0.527,9.666,2.316,14.625,6.658,21.994c1.148,1.905,2.297,3.812,3.318,5.847c4.854,10.168-0.08,24.936-11.15,23.43
	c-5.598-0.625-10.184-4.051-12.23-9.392c-0.895-2.159-1.408-4.575-1.795-6.864c-0.256-1.146-0.129-1.908,0.25-2.418
	C16.038,147.57,20.622,149.598,21.517,152.266z"/>
<path fill="none" stroke="#3F3F3F" stroke-width="2" stroke-miterlimit="10" d="M50.05,106.541c-1.02-0.635-1.529-2.033,0.123-2.418
	c2.543-0.641,5.213-1.154,7.758-1.414c4.578-0.518,9.158-0.781,13.736-1.044c1.527-0.13,4.453-0.39,4.963,0.499
	c0.639,1.016,0.387,2.67-0.885,3.055c-2.162,0.641-4.324,0.391-6.484,0.904c-0.252,2.417-0.113,8.015-0.104,12.977l-0.449,31.297
	c0.025,12.977,1.691,18.697-4.545,18.074c-2.035,0.004-3.691-0.886-4.582-1.519c-2.676-1.904-1.922-6.483-1.801-9.793
	c0.09-20.736,0.191-32.949,1.689-47.836l0.121-2.292C54.888,107.803,52.599,108.317,50.05,106.541z"/>
<path fill="none" stroke="#3F3F3F" stroke-width="2" stroke-miterlimit="10" d="M98.749,159.877
	c1.016-1.656,1.902-3.564,2.535-5.221c2.152-5.729,3.285-11.455,4.293-17.309c1.51-8.527,2.51-17.054,2.494-25.45
	c-0.006-2.672,0.244-5.217,0.494-7.762c0.123-1.526,0.631-2.036,2.285-2.167c3.561-0.262,4.326,0.883,4.332,3.045
	c0.027,14.503-0.963,28.626-4.498,42.755c-0.885,3.562-2.908,8.783-4.303,11.457c-3.549,6.877-9.523,8.924-17.924,6.903
	c-4.582-1.137-6.371-5.202-6.508-9.146c-0.137-5.726-0.658-11.703-0.541-17.555c0.234-10.435,1.74-20.613,4.01-30.668
	c0.381-1.654,1.012-3.056,1.646-4.456c1.393-3.056,5.209-3.572,7.631-1.669c0.764,0.635,0.637,0.89,0.641,3.307
	c-0.111,7.379,0.029,14.758-0.084,22.264c-0.115,5.471-0.486,10.941-0.73,16.412c-0.609,13.486-1.623,16.16,0.418,18.445
	C96.341,163.954,97.862,161.279,98.749,159.877z"/>
<path fill="none" stroke="#3F3F3F" stroke-width="2" stroke-miterlimit="10" d="M124.846,103.851
	c2.665-3.566,9.919-2.182,13.484-0.662c7.002,3.04,14.396,11.169,16.064,19.308c1.67,8.14,2.578,15.896-2.233,27.989
	c-2.912,7.132-10.284,10.707-16.896,12.119c-3.941,0.898-10.301,2.312-12.473-2.139c-0.894-1.779-1.024-3.814-1.155-5.723
	c-0.137-4.707-0.272-9.414-0.282-14.121C121.458,128.54,123.069,106.272,124.846,103.851z M133.771,114.012
	c-0.12,3.435-0.241,6.742-0.234,10.177c-0.111,8.396-1.113,16.541-1.479,24.812c-0.121,3.181-0.624,6.36-0.873,9.416
	c-0.25,1.908,0.387,2.543,1.913,2.158c14.113-3.718,17.767-22.554,14.177-36.793c-1.153-4.324-2.305-7.373-4.348-11.188
	c-1.275-2.16-3.824-4.445-6.499-5.966c-0.383-0.254-1.274-0.762-1.783-0.633C133.884,106.505,134.013,107.65,133.771,114.012z"/>
<path fill="none" stroke="#3F3F3F" stroke-width="2" stroke-miterlimit="10" d="M172.796,164.952
	c-2.924,0.514-4.194,0.897-6.868,0.396c-2.035-0.379-2.676-2.031-2.933-3.939c-0.899-4.959,1.565-45.164,1.937-51.271
	c0.121-2.546-2.293-0.758-2.555-4.575c-0.131-1.781,1.904-2.04,3.305-2.424c2.924-0.77,8.142-0.144,10.815,1.506
	c1.401,0.887,1.021,1.271,1.021,1.906c-0.119,3.944-4.709-0.627-4.699,4.081c-0.103,13.104-0.076,26.334-0.051,39.564
	c0.004,2.289-0.244,5.09,0.015,7.506c0.521,4.705,2.552,3.43,2.809,4.955C175.85,164.436,175.086,164.564,172.796,164.952z"/>
<path fill="none" stroke="#3F3F3F" stroke-width="2" stroke-miterlimit="10" d="M215.005,151.002l-1.265,3.945
	c-2.153,4.584-5.203,7.008-10.035,7.525c-1.145,0.131-2.29,0.006-3.436,0.008c-6.488-0.115-11.074-3.16-13.121-9.517
	c-3.201-10.299-3.484-25.185-1.474-37.146c0.505-2.926,1.263-5.728,2.272-8.527c0.888-2.546,2.793-3.949,5.719-3.955
	c1.398-0.003,2.925-0.515,4.322-0.899c7.631-2.05,14.89,1.498,17.701,8.999c1.664,4.576,2.182,9.41,2.317,14.244l0.007,3.689
	C218.157,136.749,217.025,143.874,215.005,151.002z M202.673,155.732c2.034-1.147,4.188-4.842,5.076-6.879
	c2.532-5.729,3.282-12.729,3.271-18.963c-0.008-4.707-0.652-9.285-1.935-13.733c-0.896-2.797-2.942-9.155-6.126-10.04
	c-1.527-0.506-3.814,1.025-4.447,2.3c-0.761,1.529-0.885,3.309-0.882,4.963c-0.231,11.451-0.591,22.899-0.823,34.351
	c0.004,1.654-0.121,3.436,0.519,4.961c0.64,1.908,2.044,3.938,5.095,3.172C202.547,155.732,202.547,155.732,202.673,155.732z"/>
<path fill="none" stroke="#3F3F3F" stroke-miterlimit="10" d="M57.159,79.576l13.199-55.285c0.941-4.685,2.201-9.37,3.775-14.057
	c1.574-5.061,5.057-6.566,14.246-5.646c9.189,0.918,6.041,11.228-1.186,42.337c-2.516,10.683-12.922,34.492-19.561,42.372
	c-6.322,7.318-21.207,10.344-33.572,6.06c-4.756-1.677-8.244-3.917-10.785-6.723c-3.811-4.302-6.67-8.979-7.629-13.66L8.618,44.828
	c-1.6-7.303-3.197-14.979-4.164-22.47C3.812,17.301,3.802,12.056,4.743,6.809c0.625-3.747,3.475-4.877,10.129-4.702
	c10.139,0.354,15.211,2.031,16.801,5.587c1.91,4.305,4.137,8.609,5.729,13.102c5.734,16.473,8.936,32.764,11.186,49.431
	c0.643,4.869,1.293,13.485,4.146,14.604C56.218,84.449,56.528,81.451,57.159,79.576z"/>
<path fill="none" stroke="#3F3F3F" stroke-miterlimit="10" d="M112.946,87.583c-4.754-0.927-5.406-4.731-4.779-7.543
	c0.629-2.812,4.111-4.13,8.547-4.138c1.268-0.003,2.218-0.004,3.168,0.182c6.339,1.299,8.562,3.729,6.982,6.729
	c-1.262,2.438-4.096,5.501-9.164,5.511C116.749,88.137,114.849,87.954,112.946,87.583z"/>
<path fill="none" stroke="#3F3F3F" stroke-miterlimit="10" d="M226.861,16.238c-2.195,11.805-11.983,21.032-20.555,26.962
	c-9.053,6.265-18.354,10.46-30.065,16.103c-1.899,0.94-2.533,1.129-3.798,2.068c16.807,8.209,25.381,17.934,31.104,28.6
	c1.59,2.807,0.008,3.746-5.38,3.757c-4.752,0.009-8.239-0.921-10.146-3.727c-1.906-3.181-3.813-6.362-6.037-9.354
	c-4.449-6.548-7.939-9.726-12.062-10.654l-0.942,4.311c-0.312,1.499-0.312,2.811-0.625,4.122
	c-3.457,14.431-0.914,19.296-11.365,20.253l-2.219,0.191c-12.037,0.211-14.574-0.908-14.906-8.025
	c-0.655-11.987,0.271-24.353,0.246-36.716c-0.006-2.81,0.306-5.808,0.617-8.993c1.244-11.055,2.174-22.107,3.42-33.35
	c0.312-2.811,1.256-5.248,2.52-8.06c0.945-2.25,2.846-3.003,6.965-2.637c3.803,0.368,7.924,1.296,11.727,2.226
	c4.121,0.929,5.078,4.299,5.722,8.793c0.644,4.495,1.64,28.47,1.325,30.344c12.029-5.081,18.779-9.902,22.25-17.589
	c2.207-5.062,4.098-10.311,6.623-15.373c2.209-4.688,3.791-5.253,11.715-3.956l2.219,0.369
	C223.77,7.384,227.803,11.177,226.861,16.238z"/>
<path fill="none" stroke="#3F3F3F" stroke-miterlimit="10" d="M223.521,87.744c-4.754-0.928-6.684-5.104-6.055-7.916
	c0.629-2.811,4.11-4.129,8.547-4.138c1.268-0.003,2.217-0.004,3.168,0.182c6.34,1.299,8.562,3.729,6.982,6.729
	c-1.264,2.438-2.818,5.873-7.889,5.883C227.326,88.298,225.424,88.115,223.521,87.744z"/>
<path fill="none" stroke="#3F3F3F" stroke-miterlimit="10" d="M24.517,152.266c0.641,2.162,1.281,4.451,2.176,6.613
	c0.639,1.652,1.025,4.068,3.189,4.572c2.164,0.377,2.539-2.676,2.535-4.457c-0.012-5.852-4.611-17.039-7.678-23.266
	c-1.531-3.051-2.811-6.229-4.215-9.406c-1.791-4.322-2.053-8.773-1.555-13.355c0.752-6.743,6.848-11.59,13.594-10.585
	c3.053,0.375,5.854,1.26,8.529,2.781c4.457,2.537,6.754,6.476,6.764,11.692c0.004,1.526-0.121,3.18-0.373,4.707
	c-0.252,1.526-0.887,1.91-2.541,1.658c-3.182-0.63-4.328-1.771-4.205-3.808c0.5-5.09-0.145-8.396-2.439-11.445
	c-1.148-1.779-2.42-1.776-3.689-0.121c-1.904,2.168-2.021,6.365-1.891,8.783c0.527,9.666,2.316,14.625,6.658,21.994
	c1.148,1.905,2.297,3.812,3.318,5.847c4.854,10.168-0.08,24.936-11.15,23.43c-5.598-0.625-10.184-4.051-12.23-9.392
	c-0.895-2.159-1.408-4.575-1.795-6.864c-0.256-1.146-0.129-1.908,0.25-2.418C19.038,147.57,23.622,149.598,24.517,152.266z"/>
<path fill="none" stroke="#3F3F3F" stroke-miterlimit="10" d="M53.05,106.541c-1.02-0.635-1.529-2.033,0.123-2.418
	c2.543-0.641,5.213-1.154,7.758-1.414c4.578-0.518,9.158-0.781,13.736-1.044c1.527-0.13,4.453-0.39,4.963,0.499
	c0.639,1.016,0.387,2.67-0.885,3.055c-2.162,0.641-4.324,0.391-6.484,0.904c-0.252,2.417-0.113,8.015-0.104,12.977l-0.449,31.297
	c0.025,12.977,1.691,18.697-4.545,18.074c-2.035,0.004-3.691-0.886-4.582-1.519c-2.676-1.904-1.922-6.483-1.801-9.793
	c0.09-20.736,0.191-32.949,1.689-47.836l0.121-2.292C57.888,107.803,55.599,108.317,53.05,106.541z"/>
<path fill="none" stroke="#3F3F3F" stroke-miterlimit="10" d="M101.749,159.877c1.016-1.656,1.902-3.564,2.535-5.221
	c2.152-5.729,3.285-11.455,4.293-17.309c1.51-8.527,2.51-17.054,2.494-25.45c-0.006-2.672,0.244-5.217,0.494-7.762
	c0.123-1.526,0.631-2.036,2.285-2.167c3.561-0.262,4.326,0.883,4.332,3.045c0.027,14.503-0.963,28.626-4.498,42.755
	c-0.885,3.562-2.908,8.783-4.303,11.457c-3.549,6.877-9.523,8.924-17.924,6.903c-4.582-1.137-6.371-5.202-6.508-9.146
	c-0.137-5.726-0.658-11.703-0.541-17.555c0.234-10.435,1.74-20.613,4.01-30.668c0.381-1.654,1.012-3.056,1.646-4.456
	c1.393-3.056,5.209-3.572,7.631-1.669c0.764,0.635,0.637,0.89,0.641,3.307c-0.111,7.379,0.029,14.758-0.084,22.264
	c-0.115,5.471-0.486,10.941-0.73,16.412c-0.609,13.486-1.623,16.16,0.418,18.445C99.341,163.954,100.862,161.279,101.749,159.877z"
	/>
<path fill="none" stroke="#3F3F3F" stroke-miterlimit="10" d="M127.846,103.851c2.665-3.566,9.919-2.182,13.484-0.662
	c7.002,3.04,14.396,11.169,16.064,19.308c1.67,8.14,2.578,15.896-2.233,27.989c-2.912,7.132-10.284,10.707-16.896,12.119
	c-3.941,0.898-10.301,2.312-12.473-2.139c-0.894-1.779-1.024-3.814-1.155-5.723c-0.137-4.707-0.272-9.414-0.282-14.121
	C124.458,128.54,126.069,106.272,127.846,103.851z M136.771,114.012c-0.12,3.435-0.241,6.742-0.234,10.177
	c-0.111,8.396-1.113,16.541-1.479,24.812c-0.121,3.181-0.624,6.36-0.873,9.416c-0.25,1.908,0.387,2.543,1.913,2.158
	c14.113-3.718,17.767-22.554,14.177-36.793c-1.153-4.324-2.305-7.373-4.348-11.188c-1.275-2.16-3.824-4.445-6.498-5.966
	c-0.384-0.254-1.275-0.762-1.784-0.633C136.884,106.505,137.013,107.65,136.771,114.012z"/>
<path fill="none" stroke="#3F3F3F" stroke-miterlimit="10" d="M175.796,164.952c-2.924,0.514-4.194,0.897-6.868,0.396
	c-2.035-0.379-2.676-2.031-2.933-3.939c-0.899-4.959,1.565-45.164,1.937-51.271c0.121-2.546-2.293-0.758-2.555-4.575
	c-0.131-1.781,1.904-2.04,3.305-2.424c2.924-0.77,8.142-0.144,10.815,1.506c1.401,0.887,1.021,1.271,1.021,1.906
	c-0.119,3.944-4.709-0.627-4.699,4.081c-0.103,13.104-0.076,26.334-0.051,39.564c0.004,2.289-0.244,5.09,0.015,7.506
	c0.521,4.705,2.552,3.43,2.809,4.955C178.85,164.436,178.086,164.564,175.796,164.952z"/>
<path fill="none" stroke="#3F3F3F" stroke-miterlimit="10" d="M218.005,151.002l-1.265,3.945c-2.153,4.584-5.203,7.008-10.035,7.525
	c-1.145,0.131-2.29,0.006-3.436,0.008c-6.488-0.115-11.074-3.16-13.121-9.517c-3.201-10.299-3.484-25.185-1.474-37.146
	c0.505-2.926,1.263-5.728,2.272-8.527c0.888-2.546,2.793-3.949,5.719-3.955c1.398-0.003,2.925-0.515,4.322-0.899
	c7.631-2.05,14.89,1.498,17.701,8.999c1.664,4.576,2.182,9.41,2.317,14.244l0.007,3.689
	C221.157,136.749,220.025,143.874,218.005,151.002z M205.673,155.732c2.034-1.147,4.188-4.842,5.076-6.879
	c2.532-5.729,3.282-12.729,3.271-18.963c-0.008-4.707-0.652-9.285-1.935-13.733c-0.896-2.797-2.942-9.155-6.126-10.04
	c-1.527-0.506-3.814,1.025-4.447,2.3c-0.761,1.529-0.885,3.309-0.882,4.963c-0.231,11.451-0.591,22.899-0.823,34.351
	c0.004,1.654-0.121,3.436,0.519,4.961c0.64,1.908,2.044,3.938,5.095,3.172C205.547,155.732,205.547,155.732,205.673,155.732z"/>
</svg>
